<?xml version="1.0" encoding="UTF-8" standalone="no"?>
<!-- Svg Vector Icons : http://www.onlinewebfonts.com/icon -->

<svg
   xmlns:dc="http://purl.org/dc/elements/1.1/"
   xmlns:cc="http://creativecommons.org/ns#"
   xmlns:rdf="http://www.w3.org/1999/02/22-rdf-syntax-ns#"
   xmlns:svg="http://www.w3.org/2000/svg"
   xmlns="http://www.w3.org/2000/svg"
   xmlns:sodipodi="http://sodipodi.sourceforge.net/DTD/sodipodi-0.dtd"
   xmlns:inkscape="http://www.inkscape.org/namespaces/inkscape"
   version="1.1"
   x="0px"
   y="0px"
   viewBox="0 0 980 840"
   enable-background="new 0 0 1000 1000"
   xml:space="preserve"
   id="svg3717"
   sodipodi:docname="desktop.svg"
   width="980"
   height="840"
   inkscape:version="0.92.1 r15371"><defs
     id="defs3721" /><sodipodi:namedview
     pagecolor="#ffffff"
     bordercolor="#666666"
     borderopacity="1"
     objecttolerance="10"
     gridtolerance="10"
     guidetolerance="10"
     inkscape:pageopacity="0"
     inkscape:pageshadow="2"
     inkscape:window-width="640"
     inkscape:window-height="480"
     id="namedview3719"
     showgrid="false"
     fit-margin-top="0"
     fit-margin-left="0"
     fit-margin-right="0"
     fit-margin-bottom="0"
     inkscape:zoom="0.236"
     inkscape:cx="490"
     inkscape:cy="420"
     inkscape:window-x="2408"
     inkscape:window-y="274"
     inkscape:window-maximized="0"
     inkscape:current-layer="svg3717" /><metadata
     id="metadata3707"> Svg Vector Icons : http://www.onlinewebfonts.com/icon <rdf:RDF><cc:Work
     rdf:about=""><dc:format>image/svg+xml</dc:format><dc:type
       rdf:resource="http://purl.org/dc/dcmitype/StillImage" /><dc:title></dc:title></cc:Work></rdf:RDF></metadata><g
     id="g3715"
     transform="translate(-10,-80)"><path
       d="m 710,885 c 0,19.3 -15.7,35 -35,35 H 325 c -19.3,0 -35,-15.7 -35,-35 v 0 c 0,-19.3 15.7,-35 35,-35 h 350 c 19.3,0 35,15.7 35,35 z"
       id="path3709"
       inkscape:connector-curvature="0" /><path
       d="m 475.8,780 h 48.4 v 70 h -48.4 z"
       id="path3711"
       inkscape:connector-curvature="0" /><path
       d="M 10,80 V 780 H 990 V 80 Z m 909.8,672.4 c -13.5,0 -24.5,-11 -24.5,-24.5 0,-13.5 11,-24.5 24.5,-24.5 13.5,0 24.5,11 24.5,24.5 0,13.5 -10.9,24.5 -24.5,24.5 z m -209.8,0 c -13.5,0 -24.5,-11 -24.5,-24.5 0,-13.5 11,-24.5 24.5,-24.5 13.5,0 24.5,11 24.5,24.5 0,13.5 -11,24.5 -24.5,24.5 z m 111.1,0 c -13.5,0 -24.5,-11 -24.5,-24.5 0,-13.5 11,-24.5 24.5,-24.5 13.5,0 24.5,11 24.5,24.5 0,13.5 -11,24.5 -24.5,24.5 z M 958.7,676 H 41.3 V 116 h 917.5 v 560 z"
       id="path3713"
       inkscape:connector-curvature="0" /></g></svg>