<?xml version="1.0" encoding="UTF-8" standalone="no"?>
<svg
   xmlns:dc="http://purl.org/dc/elements/1.1/"
   xmlns:cc="http://creativecommons.org/ns#"
   xmlns:rdf="http://www.w3.org/1999/02/22-rdf-syntax-ns#"
   xmlns:svg="http://www.w3.org/2000/svg"
   xmlns="http://www.w3.org/2000/svg"
   xmlns:sodipodi="http://sodipodi.sourceforge.net/DTD/sodipodi-0.dtd"
   xmlns:inkscape="http://www.inkscape.org/namespaces/inkscape"
   version="1.1"
   x="0px"
   y="0px"
   viewBox="0 0 44.66708 90"
   enable-background="new 0 0 100 100"
   xml:space="preserve"
   id="svg3682"
   sodipodi:docname="smartphone.svg"
   width="44.66708"
   height="90"
   inkscape:version="0.92.1 r15371"><metadata
     id="metadata3688"><rdf:RDF><cc:Work
         rdf:about=""><dc:format>image/svg+xml</dc:format><dc:type
           rdf:resource="http://purl.org/dc/dcmitype/StillImage" /><dc:title></dc:title></cc:Work></rdf:RDF></metadata><defs
     id="defs3686" /><sodipodi:namedview
     pagecolor="#ffffff"
     bordercolor="#666666"
     borderopacity="1"
     objecttolerance="10"
     gridtolerance="10"
     guidetolerance="10"
     inkscape:pageopacity="0"
     inkscape:pageshadow="2"
     inkscape:window-width="1090"
     inkscape:window-height="582"
     id="namedview3684"
     showgrid="false"
     borderlayer="false"
     inkscape:pagecheckerboard="false"
     inkscape:snap-bbox="false"
     fit-margin-top="0"
     fit-margin-left="0"
     fit-margin-right="0"
     fit-margin-bottom="0"
     inkscape:zoom="6.784"
     inkscape:cx="22.333533"
     inkscape:cy="73.773585"
     inkscape:window-x="2626"
     inkscape:window-y="293"
     inkscape:window-maximized="0"
     inkscape:current-layer="svg3682" /><path
     d="m 44.666533,5.04 c 0,-0.791 0.107,-3.096 -2.672,-3.681 -6.034,-1.271 -19.661,-1.359 -19.661,-1.359 0,0 -13.6260001,0.088 -19.6600001,1.359 -2.77900001,0.584 -2.6730000129,2.89 -2.6730000129,3.681 0,0.79 0,79.13 0,79.919 0,0.791 -0.1059999971,3.098 2.6720000129,3.682 6.034,1.269 19.6610001,1.359 19.6610001,1.359 0,0 13.627,-0.09 19.66,-1.359 2.78,-0.584 2.673,-2.891 2.673,-3.682 0,-0.789 0,-79.129 0,-79.919 z m -22.333,-1.608 c 0.538,0 0.975,0.437 0.975,0.975 0,0.538 -0.437,0.975 -0.975,0.975 -0.538,0 -0.975,-0.437 -0.975,-0.975 0,-0.538 0.437,-0.975 0.975,-0.975 z m 20.389,76.029 H 1.9445329 V 7.819 H 42.721533 v 71.642 z"
     id="path3680"
     inkscape:connector-curvature="0"
     style="fill:#000000" /></svg>